<?xml version="1.0" standalone="no"?>
<!DOCTYPE svg PUBLIC "-//W3C//DTD SVG 20010904//EN"
 "http://www.w3.org/TR/2001/REC-SVG-20010904/DTD/svg10.dtd">
<svg version="1.0" xmlns="http://www.w3.org/2000/svg"
 width="466.000000pt" height="466.000000pt" viewBox="0 0 466.000000 466.000000"
 preserveAspectRatio="xMidYMid meet">
<metadata>
Created by potrace 1.11, written by Peter Selinger 2001-2013
</metadata>
<g transform="translate(0.000000,466.000000) scale(0.100000,-0.100000)"
fill="#000000" stroke="none">
<path d="M1345 4639 c-3 -4 -20 -10 -39 -13 -18 -4 -65 -29 -102 -57 -94 -69
-93 -69 -52 -69 26 0 37 5 41 19 2 10 16 20 31 23 28 6 36 -9 11 -18 -8 -4
-15 -13 -15 -20 0 -8 -11 -19 -24 -24 -13 -5 -27 -14 -31 -19 -9 -16 -28 -13
-22 2 4 10 -5 14 -29 15 -19 1 -34 -3 -34 -8 0 -6 6 -10 14 -10 7 0 19 -7 26
-15 10 -12 9 -15 -8 -15 -10 0 -40 -9 -65 -20 -48 -21 -72 -44 -42 -38 10 2
20 -3 23 -10 3 -10 -4 -13 -24 -11 -34 4 -57 -8 -48 -23 4 -6 2 -8 -3 -5 -10
6 -29 -20 -86 -118 -39 -66 -147 -302 -147 -320 0 -8 -7 -40 -16 -72 -35 -124
-64 -260 -64 -299 0 -23 -7 -81 -16 -130 -12 -65 -17 -153 -18 -324 -1 -206 1
-240 17 -280 10 -25 23 -67 28 -95 6 -27 19 -74 30 -103 10 -29 19 -61 19 -72
0 -10 8 -25 18 -32 14 -11 17 -29 17 -114 0 -94 2 -104 34 -167 19 -37 39 -67
46 -67 8 0 10 -9 7 -25 -2 -14 0 -25 6 -25 5 0 12 -14 16 -31 3 -18 27 -75 53
-128 46 -95 46 -96 53 -61 l6 35 8 -45 c11 -59 23 -75 45 -56 29 26 56 24 59
-4 2 -14 10 -29 18 -33 8 -4 14 -19 14 -32 0 -26 -28 -40 -60 -30 -40 13 -13
-33 37 -61 16 -10 22 -8 33 10 13 21 14 21 26 -9 7 -16 13 -43 14 -60 l0 -30
-26 30 c-18 21 -33 29 -50 27 -16 -2 -24 1 -24 12 0 9 -4 16 -9 16 -5 0 -11
10 -14 22 -4 12 -9 19 -12 16 -4 -3 17 -54 45 -112 45 -91 56 -106 76 -106 13
0 24 5 24 10 0 6 6 10 14 10 8 0 19 -20 26 -48 6 -26 15 -56 20 -67 4 -11 13
-38 20 -60 7 -22 28 -62 46 -90 18 -27 43 -77 54 -110 11 -32 29 -68 40 -80
11 -11 26 -40 35 -65 8 -24 27 -59 41 -77 14 -18 33 -55 41 -81 9 -26 34 -74
55 -107 21 -33 38 -64 38 -70 0 -5 16 -23 36 -39 20 -16 52 -54 73 -85 80
-124 140 -180 231 -215 25 -10 61 -28 80 -41 19 -13 64 -33 100 -46 60 -20 77
-21 230 -15 218 8 274 18 365 66 42 22 84 40 93 40 30 0 169 120 362 312 66
66 143 165 138 178 -2 6 -43 -28 -92 -74 -49 -46 -100 -90 -115 -97 -27 -14
-131 -118 -131 -131 0 -5 -9 -8 -20 -8 -11 0 -20 -5 -20 -10 0 -6 -15 -17 -32
-24 -18 -8 -49 -21 -70 -30 -20 -9 -44 -13 -53 -10 -9 4 -26 2 -38 -4 -30 -15
-106 -22 -113 -11 -6 11 -74 12 -74 2 0 -6 -211 -9 -266 -4 -7 1 -14 10 -17
21 -3 11 -10 20 -16 20 -6 0 -8 -6 -5 -14 6 -15 -33 -29 -42 -15 -3 5 -17 9
-31 9 -14 0 -46 11 -72 24 -54 28 -98 38 -105 22 -3 -7 -5 -6 -5 2 -1 17 -80
91 -87 81 -2 -4 -11 -6 -19 -2 -18 6 -20 43 -2 43 20 1 -33 40 -54 40 -10 0
-19 5 -19 10 0 6 5 10 10 10 20 0 9 30 -12 35 -25 7 -81 82 -118 160 -12 28
-30 58 -38 67 -7 9 -11 22 -7 27 3 6 -1 11 -9 11 -9 0 -16 7 -16 16 0 22 -41
104 -52 104 -4 0 -8 5 -8 10 0 6 -9 30 -21 54 -22 47 -32 113 -18 121 16 10
91 -14 105 -33 16 -23 74 -55 74 -42 0 5 18 21 39 37 54 39 62 80 14 74 -7 -1
-13 3 -13 9 0 5 5 10 10 10 6 0 10 8 10 18 0 9 4 24 10 32 7 12 10 11 16 -5 7
-21 92 -105 106 -105 4 0 8 -5 8 -11 0 -27 56 -59 102 -59 30 1 32 2 14 15
-10 7 -15 18 -12 24 10 15 65 24 80 12 9 -8 21 -7 42 4 26 12 35 12 73 -1 33
-11 51 -12 73 -5 19 7 38 7 55 0 28 -10 43 -3 76 39 10 12 29 22 41 22 31 0
86 20 86 31 0 5 18 9 40 9 24 0 40 -5 40 -12 0 -9 3 -9 12 0 17 17 26 15 33
-8 7 -21 55 -29 55 -10 0 6 7 10 15 10 8 0 15 5 15 10 0 6 7 10 15 10 8 0 15
3 15 8 0 4 9 13 21 20 12 8 18 9 14 3 -3 -6 -1 -11 6 -11 14 0 41 30 70 76 29
48 69 56 69 15 0 -10 11 -26 25 -35 27 -18 75 -22 75 -6 0 6 -5 10 -11 10 -8
0 -7 5 1 15 10 12 10 19 2 27 -7 7 -12 31 -12 54 0 24 -5 55 -12 71 -6 15 -12
35 -13 45 -5 38 -15 48 -50 48 -40 0 -55 -21 -35 -45 37 -44 -75 -54 -260 -24
-84 13 -178 14 -320 4 -65 -5 -120 -3 -175 7 -91 16 -182 15 -213 -1 -25 -13
-59 -14 -67 -2 -3 5 0 13 7 17 6 4 14 2 16 -4 6 -20 32 -13 32 9 0 11 -4 18
-9 14 -6 -3 -14 2 -20 12 -9 17 -10 17 -28 0 -26 -23 -38 -21 -51 8 -8 16 -17
23 -27 19 -11 -5 -14 -2 -9 11 6 14 3 16 -13 11 -15 -5 -22 -1 -25 12 -5 18
13 42 32 42 18 0 0 20 -26 30 -13 5 -24 14 -24 20 0 14 11 12 34 -5 25 -19 36
-19 36 0 0 8 7 15 15 15 8 0 15 5 15 12 0 6 -3 8 -6 5 -11 -10 -64 33 -64 52
0 9 9 27 20 39 11 12 20 28 20 37 0 8 6 16 13 17 6 0 17 2 22 2 6 1 16 5 24
10 9 6 12 5 9 -5 -3 -8 -13 -13 -22 -13 -14 2 -16 -4 -10 -30 9 -43 12 -47 38
-40 14 3 27 -1 35 -10 8 -9 24 -16 37 -16 15 0 24 -6 24 -16 0 -13 -3 -14 -15
-4 -22 18 -31 6 -30 -46 1 -49 3 -51 58 -73 33 -13 36 -31 5 -31 l-23 0 25
-19 c21 -17 28 -18 55 -7 20 9 29 19 27 31 -3 13 1 16 13 11 19 -7 79 19 109
46 10 9 31 20 46 23 15 3 49 19 74 36 26 16 51 29 56 29 4 0 10 4 12 8 7 17
66 49 122 66 45 14 70 29 104 65 l44 46 -38 12 c-57 17 -111 16 -118 -2 -3 -8
-12 -15 -20 -15 -9 0 -13 6 -10 14 7 17 -45 17 -63 -1 -10 -8 -22 -9 -50 -1
-21 6 -49 12 -63 13 -14 1 -32 3 -41 4 -8 0 -25 10 -37 21 -12 12 -22 18 -22
15 0 -3 -9 -1 -21 5 -16 9 -33 7 -77 -7 -31 -10 -80 -18 -108 -18 -44 0 -55 4
-83 33 -31 31 -61 42 -61 23 0 -5 -9 -13 -21 -16 -29 -10 -137 -117 -132 -132
3 -7 -2 -16 -11 -19 -9 -3 -16 -12 -16 -20 0 -8 -5 -14 -10 -14 -6 0 -10 -8
-8 -17 2 -10 -2 -17 -9 -16 -6 1 -16 -11 -21 -27 -6 -15 -20 -33 -31 -40 -24
-12 -28 -50 -6 -50 13 0 13 -4 -2 -27 -10 -16 -25 -34 -35 -41 -10 -7 -23 -32
-30 -55 -6 -23 -26 -55 -42 -72 -27 -26 -31 -27 -34 -11 -3 12 -10 16 -22 13
-15 -4 -13 3 10 42 34 55 46 91 31 91 -6 0 -11 5 -11 10 0 6 7 10 16 10 8 0
12 4 9 10 -3 5 1 10 10 10 9 0 13 5 10 10 -3 6 -20 10 -37 10 -27 0 -30 2 -23
23 11 31 11 97 -1 105 -5 4 -9 32 -9 62 0 42 -4 55 -15 55 -8 1 -18 -4 -22
-10 -5 -6 -8 -6 -8 3 0 6 -5 12 -10 12 -14 0 -2 -68 17 -98 13 -22 13 -23 -4
-20 -10 2 -19 14 -21 27 -2 13 -22 42 -44 63 -43 41 -86 70 -73 48 13 -21 -18
-31 -32 -10 -14 19 -41 113 -50 169 -5 33 20 93 69 163 17 24 17 28 4 28 -9 0
-25 -9 -36 -20 -10 -10 -22 -15 -25 -10 -3 5 -1 11 5 15 5 3 10 14 11 23 0 9
18 32 41 50 30 24 50 32 79 32 21 0 39 4 39 10 0 14 60 27 103 22 l38 -4 -25
25 c-14 15 -26 30 -26 35 0 11 143 35 167 28 10 -3 61 -8 113 -11 52 -3 114
-8 137 -11 23 -3 57 -1 77 6 26 8 40 8 57 0 16 -9 24 -9 33 0 8 9 5 16 -13 31
l-23 19 26 0 c15 0 41 -7 58 -16 l31 -16 -46 -44 c-29 -28 -52 -42 -62 -38 -8
3 -15 10 -15 15 0 5 -16 9 -35 9 -32 0 -35 -3 -35 -29 0 -23 -6 -31 -30 -40
-20 -6 -30 -17 -30 -30 0 -19 1 -20 48 -5 26 9 67 22 91 28 25 7 47 18 49 24
8 24 19 11 14 -15 -6 -36 -39 -83 -58 -83 -8 0 -14 -7 -14 -16 0 -15 3 -14 28
2 15 9 35 26 45 37 9 11 17 16 17 10 0 -5 -14 -22 -31 -39 -17 -16 -42 -49
-57 -74 -14 -25 -38 -57 -52 -71 -30 -29 -52 -100 -24 -77 34 28 74 71 74 80
0 5 13 26 28 46 16 20 49 65 75 99 60 79 73 111 81 198 9 100 16 125 32 125 9
0 12 5 8 11 -4 7 -22 9 -44 6 -33 -4 -42 -1 -66 24 -28 29 -27 53 1 29 8 -7
15 -8 15 -3 0 5 -11 15 -25 21 -14 6 -25 19 -25 28 0 10 -5 14 -15 10 -8 -3
-15 -1 -15 3 0 5 6 12 13 14 7 3 6 6 -5 6 -10 1 -18 -8 -21 -21 -4 -20 -4 -19
-6 5 0 15 -7 27 -14 27 -7 0 -25 14 -40 31 -15 18 -31 28 -38 23 -8 -4 -9 -3
-5 4 5 8 -4 12 -28 12 -37 0 -44 8 -25 27 9 9 8 16 -4 27 -9 9 -20 16 -24 16
-5 0 -28 9 -51 20 -24 12 -61 20 -91 20 -32 0 -55 6 -65 16 -9 8 -16 11 -16 5
0 -6 -9 -11 -20 -11 -13 0 -18 5 -13 15 4 12 -2 16 -28 16 -19 -1 -67 1 -107
2 -48 2 -83 -1 -100 -10 -37 -19 -102 -84 -102 -102 0 -8 -3 -11 -7 -8 -3 4 1
22 10 39 31 63 32 84 7 80 -23 -4 -24 -2 -8 35 36 81 136 193 173 193 8 0 15
4 15 9 0 9 79 19 235 29 96 7 98 7 45 14 -124 16 -360 -12 -360 -43 0 -5 -7
-9 -15 -9 -8 0 -15 -4 -15 -9 0 -16 -44 -21 -58 -7 -12 11 -10 20 12 54 39 63
115 112 220 143 25 7 46 17 46 21 0 10 -54 0 -103 -18 -20 -8 -49 -14 -63 -14
-13 0 -27 -7 -30 -15 -4 -8 -10 -15 -15 -15 -4 0 -6 7 -3 15 4 8 1 15 -5 15
-6 0 -11 -5 -11 -11 0 -6 -6 -9 -14 -6 -8 3 -17 -1 -20 -9 -3 -8 -13 -14 -21
-14 -15 0 -15 2 -1 22 9 12 16 30 16 40 0 11 7 18 19 18 13 0 27 15 41 46 22
45 22 46 4 81 -14 27 -16 37 -6 40 6 3 12 9 12 14 0 5 11 31 24 58 13 27 27
62 30 78 16 62 120 174 200 214 33 16 66 38 75 48 21 23 94 61 120 61 11 0 23
5 26 10 3 6 15 10 27 10 14 0 18 5 14 16 -5 12 0 15 27 13 19 -2 43 4 57 14
13 9 32 17 42 17 10 0 18 5 18 10 0 6 8 10 18 10 9 0 22 10 27 23 9 19 17 22
57 20 32 -1 47 2 45 10 -1 7 9 13 23 13 14 1 57 5 96 9 61 6 72 5 77 -9 4 -11
12 -14 19 -9 7 4 23 6 36 4 12 -1 22 2 22 8 0 13 56 15 64 2 3 -4 17 -6 31 -3
16 3 33 -2 46 -14 17 -16 22 -16 30 -4 7 10 12 11 15 4 3 -7 25 -9 60 -6 59 5
162 -12 206 -35 15 -7 36 -13 47 -13 23 0 53 -27 96 -85 27 -36 102 -119 208
-227 20 -21 37 -45 37 -53 0 -8 4 -15 10 -15 5 0 37 -46 70 -102 34 -57 74
-121 90 -143 30 -41 39 -105 21 -150 -5 -11 -4 -25 1 -32 7 -9 7 -17 -1 -27
-6 -7 -9 -21 -5 -30 3 -9 2 -16 -4 -16 -15 0 -13 -80 2 -86 7 -3 19 -24 26
-47 6 -23 17 -51 23 -62 6 -11 17 -33 25 -50 8 -16 21 -37 28 -46 10 -11 11
-24 4 -50 -14 -46 -14 -46 17 -77 27 -27 41 -74 48 -164 l4 -47 -36 -7 c-33
-6 -35 -8 -15 -15 22 -8 31 -29 12 -29 -5 0 -10 -4 -10 -10 0 -5 18 -10 40
-10 29 0 43 -5 52 -20 17 -27 28 -25 28 5 0 33 12 32 41 -4 18 -22 31 -28 54
-26 16 2 31 9 33 14 2 6 12 11 22 11 10 0 20 6 23 13 3 10 13 10 50 0 26 -7
59 -13 74 -13 l26 0 -6 98 c-5 69 -11 100 -22 108 -17 13 -20 44 -4 44 7 0 9
10 4 28 -7 24 -17 89 -29 187 -2 17 -9 77 -15 135 -6 58 -16 116 -21 130 -5
14 -14 70 -20 125 -7 55 -14 120 -17 145 -3 25 -9 49 -14 55 -5 5 -9 15 -9 22
0 20 -42 105 -62 127 -10 11 -21 29 -24 40 -3 12 -16 35 -29 51 -12 17 -25 40
-29 52 -4 12 -17 34 -29 49 -12 15 -35 49 -52 75 -74 117 -120 179 -133 179
-17 0 -7 -37 19 -66 24 -26 24 -30 -1 -37 -11 -3 -32 5 -51 19 -41 30 -47 30
-55 0 -3 -14 -12 -27 -21 -30 -16 -6 -53 10 -53 23 0 4 -30 9 -67 9 -58 1 -71
5 -104 32 -21 16 -50 30 -64 30 -15 0 -36 5 -48 12 -12 7 -31 12 -42 12 -14 1
-19 7 -17 20 3 14 -1 18 -17 13 -11 -2 -28 1 -38 9 -10 7 -26 14 -35 14 -39 0
-4 42 50 61 38 13 41 26 10 39 -22 8 -22 9 5 9 33 1 36 16 5 26 -20 6 -20 8
-5 12 23 6 22 13 -8 53 -14 19 -25 39 -25 45 0 23 -40 33 -145 33 l-110 0 49
-23 49 -22 -38 -5 c-32 -4 -44 1 -71 24 -34 30 -68 33 -111 10 -12 -7 -30 -12
-39 -12 -16 0 -16 1 2 15 17 13 -32 14 -436 13 -250 -1 -444 -3 -430 -5 14 -2
32 -6 40 -9 13 -4 13 -6 0 -14 -8 -6 -25 -10 -38 -10 -13 0 -36 -7 -52 -15
-25 -13 -53 -21 -82 -24 -10 -1 -38 -31 -38 -42 0 -5 7 -9 15 -9 8 0 15 5 15
10 0 6 15 10 34 10 19 0 38 -4 41 -10 3 -6 -5 -10 -19 -10 -30 0 -129 -22
-136 -30 -3 -3 -21 -12 -40 -20 -19 -7 -55 -22 -78 -32 -41 -18 -43 -20 -25
-33 17 -13 16 -14 -13 -15 -32 0 -94 -26 -94 -39 0 -4 5 -12 10 -17 7 -7 -1
-15 -25 -24 -19 -8 -35 -17 -35 -22 0 -4 -5 -8 -10 -8 -6 0 -23 -11 -37 -24
-15 -14 -30 -23 -35 -20 -9 6 54 64 70 64 5 0 10 11 10 25 0 19 -6 25 -21 25
-17 0 -13 6 19 30 21 16 49 30 61 30 13 0 42 19 67 45 43 42 44 45 21 45 -14
0 -25 5 -25 10 0 6 16 10 35 10 19 0 35 5 35 10 0 6 5 10 10 10 6 0 19 9 30
20 11 11 28 20 38 20 10 0 27 6 38 14 11 8 31 16 44 18 14 1 26 11 28 21 3 16
-5 17 -78 16 -44 -2 -83 -6 -85 -10z m1317 -56 c15 -15 28 -31 28 -35 0 -5
-11 3 -25 17 -14 14 -30 25 -35 25 -6 0 -10 5 -10 10 0 16 12 12 42 -17z
m-442 -73 c0 -5 -4 -10 -10 -10 -5 0 -10 5 -10 10 0 6 5 10 10 10 6 0 10 -4
10 -10z m665 -20 c-8 -13 -35 -13 -55 0 -11 7 -5 10 23 10 23 0 36 -4 32 -10z
m15 -150 c0 -5 -2 -10 -4 -10 -3 0 -8 5 -11 10 -3 6 -1 10 4 10 6 0 11 -4 11
-10z m-173 -6 c-3 -3 -12 -4 -19 -1 -8 3 -5 6 6 6 11 1 17 -2 13 -5z m726
-170 c0 -21 2 -23 15 -12 13 11 15 10 9 -5 -4 -10 -7 -23 -7 -28 0 -5 -7 -9
-15 -9 -8 0 -15 9 -15 20 0 12 -9 30 -20 42 -15 16 -17 25 -9 34 15 18 42 -8
42 -42z m75 24 c21 -21 14 -40 -8 -21 -21 18 -26 33 -12 33 4 0 13 -5 20 -12z
m-228 -13 c14 -17 80 -20 80 -4 0 6 9 1 19 -12 24 -29 11 -50 -19 -31 -11 6
-28 12 -38 12 -27 0 -72 23 -72 38 0 16 15 15 30 -3z m-2380 -24 c0 -16 -30
-33 -47 -27 -15 6 -14 9 7 21 31 16 40 18 40 6z m125 -7 c19 -15 17 -15 -25
-9 -57 9 -76 25 -29 25 18 0 43 -8 54 -16z m-50 -34 c-4 -6 -20 -9 -37 -6 -46
7 -46 16 1 16 27 0 40 -4 36 -10z m2435 -25 c0 -8 -2 -15 -4 -15 -2 0 -6 7
-10 15 -3 8 -1 15 4 15 6 0 10 -7 10 -15z m65 -25 c3 -5 -1 -10 -9 -10 -9 0
-16 5 -16 10 0 6 4 10 9 10 6 0 13 -4 16 -10z m260 -180 c3 -5 1 -10 -4 -10
-6 0 -11 5 -11 10 0 6 2 10 4 10 3 0 8 -4 11 -10z m135 -706 c0 -8 -4 -14 -10
-14 -5 0 -10 9 -10 21 0 11 5 17 10 14 6 -3 10 -13 10 -21z m-2070 -234 c0 -5
-4 -10 -10 -10 -5 0 -10 5 -10 10 0 6 5 10 10 10 6 0 10 -4 10 -10z m-320 -40
c11 -5 29 -14 40 -20 11 -5 32 -10 47 -10 l28 0 -29 -15 c-15 -8 -41 -15 -57
-15 -15 0 -30 -4 -33 -9 -3 -4 -18 -11 -33 -14 -47 -11 -57 -21 -42 -45 11
-18 10 -24 -5 -40 -10 -12 -25 -18 -37 -15 -10 3 -19 0 -19 -6 0 -6 5 -11 11
-11 5 0 8 -4 5 -8 -5 -9 -53 -8 -62 1 -4 4 -1 14 6 22 12 14 10 14 -15 5 -15
-6 -29 -9 -31 -7 -2 2 1 19 6 37 10 36 105 140 127 140 7 0 13 5 13 10 0 6 14
10 30 10 17 0 39 -4 50 -10z m359 -56 c2 -2 -10 -4 -27 -4 -18 0 -32 5 -32 10
0 9 47 4 59 -6z m-205 -31 c8 -20 0 -28 -36 -37 -17 -4 -28 -2 -28 4 0 5 -5
10 -11 10 -5 0 -8 -4 -5 -8 4 -7 -77 -9 -122 -4 -22 3 -3 22 22 22 12 0 26 4
32 9 10 10 48 17 105 20 26 1 39 -4 43 -16z m396 -23 c0 -5 -4 -10 -10 -10 -5
0 -10 5 -10 10 0 6 5 10 10 10 6 0 10 -4 10 -10z m-900 -115 c0 -27 -34 -40
-51 -19 -7 9 -7 14 -1 14 6 0 7 13 1 38 -13 57 -11 60 21 23 17 -18 30 -44 30
-56z m980 -16 c0 -14 -25 -39 -39 -39 -15 0 -14 23 1 38 15 15 38 16 38 1z
m-895 -19 c3 -5 -3 -10 -14 -10 -12 0 -21 5 -21 10 0 6 6 10 14 10 8 0 18 -4
21 -10z m83 -13 c2 -12 -3 -17 -17 -17 -12 0 -21 6 -21 13 0 31 32 34 38 4z
m-68 -77 c0 -5 -4 -10 -10 -10 -5 0 -10 5 -10 10 0 6 5 10 10 10 6 0 10 -4 10
-10z m40 -10 c0 -5 -2 -10 -4 -10 -3 0 -8 5 -11 10 -3 6 -1 10 4 10 6 0 11 -4
11 -10z m796 -22 c-9 -12 -16 -17 -16 -10 0 14 23 42 29 37 1 -2 -4 -14 -13
-27z m-136 -18 c-19 -12 -30 -12 -30 -1 0 10 31 20 40 14 2 -2 -2 -8 -10 -13z
m-807 -10 c-3 -11 -14 -20 -24 -20 -12 0 -21 -10 -25 -25 -3 -14 -12 -25 -20
-25 -8 0 -14 -5 -14 -12 0 -6 -2 -9 -5 -7 -2 3 1 22 7 43 9 29 18 38 40 43 16
3 31 10 34 14 9 15 12 10 7 -11z m-18 -139 c-3 -6 -14 -11 -23 -11 -15 1 -15
2 2 15 21 16 32 13 21 -4z m15 -40 c0 -12 -20 -25 -27 -18 -7 7 6 27 18 27 5
0 9 -4 9 -9z m-160 -137 c14 -37 12 -71 -5 -78 -8 -3 -12 -12 -9 -21 4 -9 0
-15 -10 -15 -20 0 -42 76 -26 94 6 8 8 21 4 30 -4 12 0 16 15 16 14 0 25 -9
31 -26z m-55 6 c3 -5 2 -10 -4 -10 -5 0 -13 5 -16 10 -3 6 -2 10 4 10 5 0 13
-4 16 -10z m124 -180 c1 -20 5 -40 10 -45 14 -15 24 -75 13 -75 -22 0 -42 64
-41 129 0 69 17 61 18 -9z m902 -43 c25 -24 49 -61 49 -74 0 -5 -4 -2 -9 6 -5
8 -20 16 -32 18 -13 2 -26 7 -29 12 -3 4 -12 11 -20 14 -12 4 -11 6 3 6 14 1
17 6 12 21 -8 26 -3 25 26 -3z m-556 -148 c10 -15 -1 -22 -24 -14 -12 3 -19
11 -16 16 8 12 32 11 40 -2z m610 -79 c3 -5 -1 -10 -9 -10 -9 0 -16 5 -16 10
0 6 4 10 9 10 6 0 13 -4 16 -10z m105 -20 c0 -5 -4 -10 -10 -10 -5 0 -10 5
-10 10 0 6 5 10 10 10 6 0 10 -4 10 -10z m-455 -129 c-7 -34 -35 -64 -35 -38
0 17 32 78 38 72 2 -2 1 -17 -3 -34z m-185 -66 c0 -8 -9 -19 -20 -25 -15 -8
-20 -8 -20 3 0 14 19 37 32 37 4 0 8 -7 8 -15z m1112 -3 c10 -8 28 -16 40 -17
36 -4 36 -4 40 -20 3 -13 6 -13 32 0 16 9 36 13 43 11 16 -7 17 -58 1 -74 -15
-15 -51 -15 -66 0 -9 9 -17 6 -37 -12 -17 -16 -28 -20 -37 -13 -23 18 -121 23
-143 7 -23 -17 -106 -19 -122 -3 -8 8 -17 6 -34 -10 -26 -24 -87 -28 -120 -8
-17 10 -23 10 -26 0 -3 -8 -22 -13 -48 -13 -24 0 -46 -4 -50 -10 -4 -6 -15 -6
-31 0 -16 7 -32 7 -44 0 -28 -15 -36 -12 -48 15 -17 36 -16 38 18 33 25 -4 29
-1 25 12 -3 9 1 25 9 35 12 17 17 18 41 7 15 -7 28 -11 29 -10 14 34 27 43 62
44 21 1 40 6 42 13 2 7 33 11 85 12 45 0 91 4 102 9 11 4 65 8 120 8 75 0 104
-4 117 -16z m-1087 -42 c3 -5 -3 -10 -14 -10 -12 0 -21 -7 -21 -15 0 -8 -3
-15 -7 -15 -12 0 -38 18 -33 22 46 29 65 34 75 18z"/>
<path d="M1368 4533 c-16 -4 -17 -6 -2 -20 11 -12 18 -13 27 -4 14 14 -2 29
-25 24z"/>
<path d="M3420 4380 c0 -5 6 -10 13 -10 7 0 23 -9 36 -21 12 -12 25 -19 27
-16 6 5 -58 57 -69 57 -4 0 -7 -4 -7 -10z"/>
<path d="M3455 4320 c3 -5 8 -10 11 -10 2 0 4 5 4 10 0 6 -5 10 -11 10 -5 0
-7 -4 -4 -10z"/>
<path d="M3238 4263 c7 -3 16 -2 19 1 4 3 -2 6 -13 5 -11 0 -14 -3 -6 -6z"/>
<path d="M3270 4239 c0 -5 5 -7 10 -4 6 3 10 8 10 11 0 2 -4 4 -10 4 -5 0 -10
-5 -10 -11z"/>
<path d="M1428 3203 c7 -3 16 -2 19 1 4 3 -2 6 -13 5 -11 0 -14 -3 -6 -6z"/>
<path d="M2981 3145 c-49 -28 -117 -35 -107 -10 9 23 -37 23 -127 -2 -63 -17
-75 -27 -57 -48 6 -8 9 -19 5 -25 -4 -7 2 -9 19 -4 22 5 25 3 20 -11 -6 -14
-3 -16 12 -11 12 4 29 -3 48 -19 33 -28 43 -30 83 -13 45 19 226 47 248 38 12
-4 27 -15 34 -24 7 -9 19 -16 26 -16 6 0 22 -9 35 -20 28 -25 40 -18 16 9 -10
11 -15 24 -11 30 10 17 -57 110 -90 127 -55 28 -105 28 -154 -1z"/>
<path d="M2680 2915 c7 -8 19 -15 26 -15 8 0 11 6 8 15 -4 8 -15 15 -26 15
-17 0 -18 -3 -8 -15z"/>
<path d="M2611 2893 c-13 -15 -13 -16 6 -11 16 4 20 2 16 -8 -3 -8 -11 -14
-19 -14 -15 0 -73 -31 -116 -62 -31 -22 -37 -41 -11 -36 10 2 30 -11 47 -30
20 -23 34 -31 47 -27 22 7 27 -23 7 -43 -10 -10 3 -11 62 -7 41 4 78 12 82 18
5 9 10 9 20 -1 15 -15 61 -15 143 0 l65 13 0 37 c0 21 4 38 8 38 12 0 52 -39
52 -50 0 -13 67 -13 75 0 3 6 17 10 31 10 29 0 32 23 7 75 -19 40 -83 75 -135
75 -18 0 -27 4 -22 11 3 6 -7 4 -22 -4 -16 -8 -55 -15 -87 -15 -32 0 -64 -6
-72 -12 -15 -12 -35 -6 -35 11 0 5 15 9 33 9 64 0 61 17 -4 22 -35 3 -68 2
-73 -3 -16 -15 -63 -10 -70 6 -7 19 -17 18 -35 -2z m299 -142 c0 -5 -7 -12
-16 -15 -24 -9 -28 -7 -14 9 14 17 30 20 30 6z"/>
<path d="M3381 2726 c-7 -8 -21 -12 -31 -9 -11 3 -20 1 -20 -5 0 -5 10 -12 23
-16 33 -9 37 -8 37 9 0 8 9 15 19 15 11 0 23 5 26 10 10 16 -41 12 -54 -4z"/>
<path d="M2380 2711 c0 -5 7 -14 15 -21 13 -10 15 -9 15 9 0 12 -6 21 -15 21
-8 0 -15 -4 -15 -9z"/>
<path d="M2414 2635 c-8 -21 2 -45 20 -45 19 0 29 29 15 46 -15 18 -28 18 -35
-1z"/>
<path d="M3680 2591 c0 -17 5 -31 10 -31 6 0 10 11 10 24 0 14 -4 28 -10 31
-6 4 -10 -7 -10 -24z"/>
<path d="M3821 2590 c-38 -37 -39 -51 -3 -72 79 -47 94 -78 91 -194 -1 -52 1
-97 3 -100 10 -10 30 26 43 78 7 29 20 71 29 93 19 49 20 74 4 112 -16 38
-104 113 -131 113 -2 0 -18 -14 -36 -30z"/>
<path d="M3640 2570 c0 -5 5 -10 11 -10 5 0 7 5 4 10 -3 6 -8 10 -11 10 -2 0
-4 -4 -4 -10z"/>
<path d="M2796 2531 c-12 -19 18 -23 95 -13 70 9 71 9 23 11 -28 0 -65 4 -82
7 -17 4 -32 1 -36 -5z"/>
<path d="M3175 2520 c3 -5 10 -10 16 -10 5 0 9 5 9 10 0 6 -7 10 -16 10 -8 0
-12 -4 -9 -10z"/>
<path d="M2500 2470 c0 -5 5 -10 11 -10 5 0 7 5 4 10 -3 6 -8 10 -11 10 -2 0
-4 -4 -4 -10z"/>
<path d="M1383 2442 c20 -4 23 -38 5 -46 -7 -3 4 -3 25 1 31 4 43 1 62 -17 22
-21 27 -21 77 -10 82 19 100 29 56 29 -62 1 -46 21 31 40 14 3 -42 6 -124 6
-81 0 -141 -1 -132 -3z"/>
<path d="M1697 2436 c-4 -9 -18 -16 -32 -16 -15 0 -24 -4 -20 -10 8 -14 31
-13 47 3 7 6 21 12 31 12 25 0 26 19 1 23 -12 2 -24 -4 -27 -12z"/>
<path d="M3677 2293 c-14 -13 -6 -72 19 -144 31 -85 40 -99 65 -99 26 0 27 7
17 89 -9 64 -16 81 -46 118 -37 44 -44 48 -55 36z"/>
<path d="M2620 2272 c0 -7 5 -12 10 -12 6 0 10 -7 10 -16 0 -9 15 -31 33 -49
58 -61 72 -79 115 -153 24 -40 68 -101 98 -135 47 -51 55 -66 50 -89 -5 -26
19 -88 37 -96 4 -2 7 -10 7 -19 0 -8 7 -21 16 -30 8 -9 13 -22 10 -29 -3 -8
-2 -14 2 -14 5 0 18 -21 30 -46 18 -36 20 -49 11 -60 -14 -17 -5 -44 14 -44
57 0 39 196 -23 250 -11 9 -17 20 -13 23 3 4 1 13 -5 20 -9 10 -8 19 3 34 13
19 13 22 -1 27 -11 4 -14 13 -10 31 5 18 2 25 -9 25 -8 0 -15 7 -15 15 0 8
-20 39 -45 69 -25 31 -45 59 -45 62 0 10 -92 98 -130 125 -38 26 -64 46 -90
69 -50 45 -60 52 -60 42z"/>
<path d="M3802 1858 c-7 -7 -12 -16 -12 -20 0 -15 15 -8 28 12 13 22 3 27 -16
8z"/>
<path d="M2315 1751 c-3 -5 -1 -12 5 -16 5 -3 10 1 10 9 0 18 -6 21 -15 7z"/>
<path d="M1518 1743 c7 -3 16 -2 19 1 4 3 -2 6 -13 5 -11 0 -14 -3 -6 -6z"/>
<path d="M982 1706 c12 -38 28 -48 28 -18 0 11 -9 27 -19 36 -19 18 -19 17 -9
-18z"/>
<path d="M3580 1580 c0 -12 44 -12 80 0 20 6 14 8 -27 9 -29 1 -53 -3 -53 -9z"/>
<path d="M3045 1451 c-3 -6 4 -15 15 -21 20 -11 21 -10 10 9 -12 23 -16 25
-25 12z"/>
<path d="M3017 1344 c-8 -8 1 -24 14 -24 5 0 9 7 9 15 0 15 -12 20 -23 9z"/>
<path d="M1807 1197 c-3 -8 -1 -20 4 -28 6 -10 9 -7 9 14 0 29 -5 35 -13 14z"/>
<path d="M1835 1150 c3 -5 8 -10 11 -10 2 0 4 5 4 10 0 6 -5 10 -11 10 -5 0
-7 -4 -4 -10z"/>
<path d="M1900 1083 c0 -10 51 -34 59 -28 4 2 8 -6 8 -17 2 -28 18 -42 37 -35
20 8 21 27 1 27 -8 0 -15 6 -15 14 0 7 -11 21 -25 30 -25 16 -65 22 -65 9z"/>
<path d="M3406 998 c-18 -34 -15 -44 9 -35 9 4 15 19 15 37 0 38 -5 38 -24 -2z"/>
<path d="M1907 997 c3 -6 7 -22 8 -36 2 -14 6 -33 9 -43 5 -10 2 -18 -6 -21
-7 -2 -3 -2 10 0 12 2 22 -1 22 -7 0 -6 10 -25 22 -43 13 -18 23 -33 23 -34 0
-1 12 -4 28 -8 21 -6 27 -4 27 9 0 13 10 15 64 10 41 -4 66 -2 70 5 4 6 0 11
-9 11 -8 0 -33 11 -55 25 -22 14 -45 25 -52 26 -7 0 -2 5 12 10 20 8 22 12 10
19 -8 5 -34 12 -58 16 -27 4 -46 13 -53 25 -5 11 -16 19 -24 19 -8 0 -15 4
-15 9 0 5 -9 11 -20 14 -13 3 -18 1 -13 -6z"/>
</g>
</svg>
